<svg width="35" height="35" viewBox="0 0 35 35" fill="none" xmlns="http://www.w3.org/2000/svg">
<path fill-rule="evenodd" clip-rule="evenodd" d="M32.083 13.8541C32.083 12.8872 31.6989 11.9599 31.0152 11.2762C30.3314 10.5924 29.4041 10.2083 28.4372 10.2083H19.7426C20.0729 9.81846 20.3585 9.3929 20.5943 8.93956C21.3497 7.45206 21.233 6.00831 20.6118 4.48727C20.1086 3.26227 18.7043 2.8729 17.6543 3.3979L9.36509 7.54248C7.42758 8.51133 5.79808 10.0005 4.65911 11.8431C3.52014 13.6858 2.91669 15.8092 2.91634 17.9754V18.9583C2.91614 21.9229 4.04454 24.7763 6.07227 26.939C8.1 29.1016 10.875 30.4112 13.8334 30.6016C14.8105 30.6629 15.7934 30.625 16.7705 30.625C17.3611 30.6252 17.9429 30.482 18.4658 30.2076C18.9888 29.9333 19.4373 29.5359 19.7727 29.0499C20.1081 28.5638 20.3205 28.0035 20.3914 27.4172C20.4624 26.831 20.3899 26.2362 20.1801 25.6841C20.8901 25.2347 21.4231 24.5537 21.6889 23.7565C21.9546 22.9593 21.9368 22.0947 21.6384 21.3091C22.2631 20.9136 22.7527 20.3374 23.0424 19.6571C23.332 18.9768 23.4079 18.2245 23.2601 17.5H28.4372C28.916 17.5 29.39 17.4057 29.8324 17.2225C30.2747 17.0392 30.6766 16.7707 31.0152 16.4321C31.3537 16.0936 31.6223 15.6917 31.8055 15.2493C31.9887 14.807 32.083 14.3329 32.083 13.8541ZM16.7705 26.25H16.0413C15.6546 26.25 15.2836 26.0963 15.0101 25.8228C14.7367 25.5494 14.583 25.1784 14.583 24.7916C14.583 24.4049 14.7367 24.0339 15.0101 23.7605C15.2836 23.487 15.6546 23.3333 16.0413 23.3333H18.2288C18.3246 23.3341 18.4196 23.316 18.5083 23.28C18.5971 23.2441 18.6779 23.191 18.7461 23.1239C18.8144 23.0567 18.8688 22.9768 18.9061 22.8886C18.9435 22.8004 18.9631 22.7057 18.9638 22.61C18.9646 22.5142 18.9465 22.4193 18.9106 22.3305C18.8746 22.2417 18.8216 22.1609 18.7544 22.0927C18.6872 22.0244 18.6073 21.9701 18.5191 21.9327C18.4309 21.8954 18.3363 21.8757 18.2405 21.875H17.4997C17.1129 21.875 16.742 21.7213 16.4685 21.4478C16.195 21.1744 16.0413 20.8034 16.0413 20.4166C16.0413 20.0299 16.195 19.6589 16.4685 19.3855C16.742 19.112 17.1129 18.9583 17.4997 18.9583H19.6872C19.8806 18.9583 20.066 18.8815 20.2028 18.7447C20.3395 18.608 20.4163 18.4225 20.4163 18.2291C20.4163 18.0358 20.3395 17.8503 20.2028 17.7135C20.066 17.5768 19.8806 17.5 19.6872 17.5H17.4997C17.1129 17.5 16.742 17.3463 16.4685 17.0728C16.195 16.7994 16.0413 16.4284 16.0413 16.0416C16.0413 15.6549 16.195 15.2839 16.4685 15.0105C16.742 14.737 17.1129 14.5833 17.4997 14.5833H28.4372C28.6306 14.5833 28.816 14.5065 28.9528 14.3697C29.0895 14.233 29.1663 14.0475 29.1663 13.8541C29.1663 13.6608 29.0895 13.4753 28.9528 13.3385C28.816 13.2018 28.6306 13.125 28.4372 13.125H16.0413C15.7394 13.1247 15.445 13.0308 15.1988 12.8561C14.9525 12.6815 14.7665 12.4347 14.6665 12.1498C14.5665 11.8649 14.5573 11.556 14.6403 11.2657C14.7233 10.9755 14.8944 10.7181 15.1299 10.5291C16.8157 9.18019 17.6382 8.31686 17.994 7.61977C18.1963 7.24787 18.257 6.81524 18.1647 6.40206L10.6688 10.15C9.21573 10.8768 7.99368 11.9938 7.13958 13.3759C6.28548 14.758 5.83306 16.3507 5.83301 17.9754V18.9583C5.83299 21.2739 6.75086 23.4951 8.3855 25.1352C10.0201 26.7753 12.2383 27.7006 14.5538 27.7083H16.7705C16.9639 27.7083 17.1494 27.6315 17.2861 27.4947C17.4229 27.358 17.4997 27.1725 17.4997 26.9791C17.4997 26.7858 17.4229 26.6003 17.2861 26.4635C17.1494 26.3268 16.9639 26.25 16.7705 26.25Z" fill="#F3D70D"/>
</svg>
